<svg viewBox="0 0 92 92" fill="none" xmlns="http://www.w3.org/2000/svg">
  <path fill-rule="evenodd" clip-rule="evenodd" d="M45.833 8.5c-20.71 0-37.5 16.79-37.5 37.5s16.79 37.5 37.5 37.5c20.711 0 37.5-16.79 37.5-37.5S66.544 8.5 45.833 8.5ZM0 46C0 20.687 20.52.167 45.833.167S91.667 20.687 91.667 46s-20.52 45.833-45.834 45.833C20.52 91.833 0 71.313 0 46Z" fill="#fff"/>
  <path fill-rule="evenodd" clip-rule="evenodd" d="M45.833 16.833A4.167 4.167 0 0 1 50 21v25.716c0 1.104.44 2.164 1.22 2.945l10.06 10.06a4.167 4.167 0 0 1-5.893 5.892L45.33 55.555a12.501 12.501 0 0 1-3.662-8.837V21a4.167 4.167 0 0 1 4.166-4.167Z" fill="#fff"/>
</svg>
