<svg xmlns="http://www.w3.org/2000/svg" fill="none" viewBox="0 0 222 200">
  <g clip-path="url(#b)" filter="url(#a)">
    <path fill="#F2F2F2" d="m19.68 38.739-1.858-10.083-3.45-2.388c-1.77-.265-6.476-1.114-11.147-2.388-5.839-1.592-1.858-2.918-2.389-5.041-.53-2.123.796-1.592 4.777-1.592s3.45.53 5.574 0c2.123-.53 1.858 0 1.061-2.123-1.592-1.327-1.061-2.123.797-3.715 1.857.266 1.061.796 3.98.796 2.92 0 .797-1.326.531-2.653-.265-1.327-1.061-1.857-.53-2.388.53-.53 0-2.388 1.592-4.776C19.892.478 21.448 0 22.068 0c5.485 1.769 16.667 5.36 17.516 5.572 1.062.265 11.678 6.633 14.597 7.43 2.92.795 2.92 0 4.512.795 1.593.796 1.062 0 4.247 1.327 3.184 1.327 3.715-.796 9.82-1.327 6.104-.53 2.123-.796 4.246-1.592s3.715-5.04 5.573-5.04c1.858 0 .531 1.326 1.858 2.918s5.308-.266 13.27 2.918c7.962 3.185 1.062.531 7.166 2.123s1.061.796 2.654 2.653c1.592 1.858 2.123 1.592 3.715 4.246 1.593 2.653.531 1.061 1.858 3.184 1.327 2.122 3.716-.53 5.043 0s2.919 1.857 3.981 2.653c1.061.796 1.592.796 4.246 2.919 2.654 2.123 1.327 0 5.043-2.123 3.715-2.122 2.654-.796 8.227-.796s3.45 0 5.839-.796c2.388-.796 1.327-.265 2.654-3.98s-1.062-3.715 0-5.306c1.061-1.592 1.592 0 4.246 4.245 2.654 4.245 1.593 2.653 3.716 8.756s5.042 15.124 7.431 19.104c2.389 3.98 3.716 6.633 4.246 7.96.531 1.327 16.455 17.778 17.251 18.839.796 1.061 5.574 2.123 6.635 2.388 1.062.265 0 1.061 0 2.388s.796 1.327 1.858 2.388 10.881 14.859 11.412 15.124c.531.265 2.123 1.327 4.777 2.653 2.654 1.327 4.247 2.388 5.839 3.715 1.593 1.327 2.389-.265 3.45 0 1.062.265 1.858 1.592 2.654 3.715.637 1.698.266 2.299 0 2.388-.973.884-3.397 2.653-5.308 2.653-2.388 0-1.327-.796-2.388-.796-1.062 0-3.45-3.98-6.104-7.164-2.654-3.184-1.858.265-5.043 0s-1.327 4.511 0 7.164c1.327 2.654-1.327.796-2.123 1.592-.637.637-2.035.973-2.654 1.062l-1.062 23.084c1.062.796 3.45 2.812 4.512 4.51 1.327 2.123 1.327 1.592 4.512 2.388 3.185.796 2.123.796 7.962 5.042 5.839 4.245.531 1.061 0 2.653s-5.043.796-6.901 2.123c-1.857 1.327-3.45 1.061-6.369 3.184-2.92 2.123-1.327 1.857-1.593 2.653-.265.796.531 1.062 1.593 4.246 1.061 3.184 2.123 3.714 3.715 5.306 1.593 1.592 0 2.654 0 6.103v4.511c0 2.122 0 1.857-1.592 3.184-1.592 1.326-1.062.796-8.493 7.694-.531 2.389 1.327 0 3.45 1.858 2.124 1.857 1.593 0 2.92 4.245-.531 1.592-1.062.531-3.716.531s-2.123-.531-5.839-2.123c-3.715-1.592-2.123-1.326-2.388-2.653-.266-1.327 0-1.061-1.062-1.858-1.061-.796-1.327-2.122-1.858-3.714-.53-1.592-1.061-1.327-1.061-2.123v-10.348c0-1.857-1.062-2.919-1.593-3.449-.53-.531-1.592-1.062-2.919-1.858s-1.592 0-3.185 0c-1.592 0-2.654-2.122-3.715-2.918-1.062-.796-2.124-1.592-3.981-3.45-1.858-1.857-1.062.266-3.716 0-2.654-.265-1.858.266-3.45 1.062s0 .796 0 2.388c0 1.592 1.062 2.122 3.45 6.633 1.062 2.388 1.327 0 2.654 0s2.654 0 4.246 1.592c1.593 1.592.797.796 1.858.796 1.062 0 .531 1.857.796 2.388.266.531 2.654 3.184 3.451 5.307.637 1.698.265 1.946 0 1.857-1.593.265-5.043.637-6.105 0-1.327-.796-2.919-1.327-5.573-1.857-2.654-.531-3.715-.796-7.166-1.327-3.45-.531-3.715-1.327-5.308-1.857-1.592-.531-6.104-2.919-7.165-4.511-1.062-1.592-1.327-1.327-2.654-2.388s-.531-2.123 0-3.715c.53-1.592 1.592-1.592 2.654-2.918 1.061-1.327 1.592-1.592 2.123-2.388.531-.796.531-1.592 1.858-3.184s1.327-2.123 1.592-2.654l1.592-3.184c.531-1.061 2.124-4.51-3.184-10.083-5.308-5.572-1.858-3.714-3.981-5.837-2.124-2.123-3.185-4.511-4.512-5.837-1.327-1.327-4.512-2.654-5.839-3.98-1.327-1.327-2.919-1.858-4.777-2.654-1.858-.796-1.062-.53-3.981-1.857-2.92-1.327-5.839-2.653-6.635-3.449l-2.123-2.123c-1.327-1.327-1.062-1.327-2.389-2.919-1.327-1.592-1.858-1.061-5.043-2.122-3.184-1.062-1.061 0-2.654 0-1.592 0-1.592-.266-7.431-1.062-5.838-.796-5.573-1.592-6.9-2.122-1.327-.531-5.839-2.654-7.166-3.45-1.327-.796-1.592-1.326-2.654-2.122-1.061-.797-1.061-1.062-2.123-3.45-1.062-2.388 0-1.061 1.062-3.449 0-.796.265-2.388 0-4.51-.266-2.124-1.327-2.654-1.858-2.654-.531 0-1.062-2.388-1.327-3.184-.266-.796-.531-1.062-1.062-2.388-.53-1.327-.265-1.062-.796-2.654-.53-1.592-.796-1.061-1.858-1.857-1.061-.796-1.327-1.061-2.654-1.061s-.796-1.062-1.592-1.858-.796-.796-7.166-2.653c-4.777-1.857-1.592-.53-2.654-2.123-1.061-1.592-1.327-1.592-2.389-2.388-1.061-.796-.796-1.061-4.511-3.45-2.654-.53-1.327 0-6.635-1.591-1.64-.492-2.418-.68-2.742-.744a.711.711 0 0 1-.194-.024c.086.26.189.535.282.768-.443.265-1.911 1.433-4.247 3.98-.265.796.797 1.061 2.123 1.061 1.327 0 1.062 1.592 4.778 6.368 0 1.062.707 1.504 1.061 1.592l1.327 1.062c.62.265 2.336 1.008 4.247 1.857 2.388 1.061 1.327 0 3.715 0 2.389 0 1.593.796 4.247 1.061 2.654.266 2.388 1.062 2.919 1.592.53.531.796 2.388.796 6.634v1.857c-.53.708-2.017 2.282-3.715 2.919-2.123.796-4.777 4.245-5.308 8.225 0 1.858 0 1.062-9.29 1.062-1.857-2.389-1.326-2.123-2.653-4.511s-.797-1.062-2.123-3.184c-1.328-2.123-1.593-2.123-2.92-3.715-1.327-1.592-2.654-2.653-8.493-5.041-3.184-.796-2.123-.796-6.37-1.858-4.246-1.061-1.592-.265-10.084-5.041-2.654-3.45-7.166-7.43-7.962-10.879-.797-3.45-5.043-15.654 0-19.9 3.98-1.592 0-1.327.796-2.919s-.796-3.184-.796-4.245.796-1.592 2.123-2.388c1.327-.796 4.246-.53 5.839-1.061 1.273-.425 2.3-2.654 2.654-3.715Z"/>
  </g>
  <defs>
    <clipPath id="b">
      <path fill="#fff" d="M0 0h222v200H0z"/>
    </clipPath>
    <filter id="a" width="223.244" height="200.857" x="0" y="0" color-interpolation-filters="sRGB" filterUnits="userSpaceOnUse">
      <feFlood flood-opacity="0" result="BackgroundImageFix"/>
      <feBlend in="SourceGraphic" in2="BackgroundImageFix" result="shape"/>
      <feColorMatrix in="SourceAlpha" result="hardAlpha" values="0 0 0 0 0 0 0 0 0 0 0 0 0 0 0 0 0 0 127 0"/>
      <feOffset dx="2.487" dy="2.487"/>
      <feGaussianBlur stdDeviation=".622"/>
      <feComposite in2="hardAlpha" k2="-1" k3="1" operator="arithmetic"/>
      <feColorMatrix values="0 0 0 0 0 0 0 0 0 0 0 0 0 0 0 0 0 0 0.25 0"/>
      <feBlend in2="shape" result="effect1_innerShadow_6_2"/>
    </filter>
  </defs>
</svg>
