<svg width="61" height="57" fill="none" xmlns="http://www.w3.org/2000/svg">
  <path d="M51.073 5.992c.32 1.245.263 2.547-.16 3.844-.422 1.307-1.21 2.598-2.347 3.792-1.348 1.422-3.061 2.593-5.003 3.444l-.589-3.118c2.959-1.742 4.673-4.495 4.084-7.077-.788-3.478-5.403-5.163-10.132-3.97-4.518 1.143-7.78 4.581-7.448 7.865.246 2.428 2.376 4.221 5.363 4.74l.4 3.022c-1.902-.142-3.644-.634-5.106-1.439a9.374 9.374 0 0 1-1.017-.645l-14.501 9.863c.622 2.022-.372 4.53-2.576 6.009-2.616 1.753-5.798 1.29-7.071-.914-1.222-2.113-.263-5.089 2.125-6.75 2.01-1.4 4.483-1.497 6.1-.332l14.136-9.71a6.372 6.372 0 0 1-1.097-3.118c-.36-4.53 4.13-9.27 10.32-10.91 6.597-1.747 13.257.498 14.52 5.404Z" fill="#fff"/>
  <path d="M51.353 45.167c-1.736 3.69-6.842 5.055-11.126 3.102-3.381-1.542-5.14-4.672-4.643-7.545L17.82 33.339c-.28.377-.594.742-.92 1.09-2.022 2.137-4.792 3.599-7.756 3.862-2.776.245-5.238-.589-6.945-2.29C.572 34.377-.176 32.138.035 29.71c.211-2.358 1.308-4.671 3.107-6.567 1.794-1.897 4.118-3.205 6.608-3.696 2.428-.48 4.701-.108 6.5.92l-2.759 1.907c-2.141-.88-4.917-.52-7.225 1.097-3.204 2.245-4.529 6.254-2.924 9.139 1.702 3.067 6.066 3.77 9.698 1.353 2.622-1.742 3.993-4.552 3.77-7.082l2.93-1.976c.177.616.28 1.279.303 1.976.045 1.314-.206 2.627-.709 3.878l17.855 6.928c2.067-2.159 5.751-2.993 9.184-1.782 4.34 1.525 6.694 5.735 4.98 9.361Z" fill="#fff"/>
  <path d="M60.046 40.918c.497 1.942.503 3.878.035 5.711-.48 1.857-1.446 3.593-2.868 5.095-2.844 3.004-7.06 4.627-11.714 4.57-4.46-.052-8.659-1.645-11.829-4.353-2.993-2.559-4.729-5.831-4.992-9.224-.068-.851-.04-1.68.075-2.479l4.038 1.754c.086 2.558 1.4 5.134 3.74 7.048a12.394 12.394 0 0 0 2.537 1.599c5.906 2.822 13.062.994 15.455-4.192 2.336-5.067-1.05-10.835-7.065-12.846a13.329 13.329 0 0 0-5.557-.628c-.126.012-.252.029-.377.046-.023 0-.04.006-.057.006a5.24 5.24 0 0 0-.292.045l-.314.052c-.091.017-.188.034-.28.057-.011 0-.017 0-.023.005-.085.018-.17.035-.25.058-.047.011-.098.022-.144.034-.08.017-.154.04-.234.063a11.728 11.728 0 0 0-1.08.348c-.08.029-.154.057-.233.092-.097.04-.2.08-.292.125-.04.017-.074.029-.108.046a2.015 2.015 0 0 0-.194.091c-.04.017-.08.035-.12.057l-.206.103-.097.051-.286.155-.24.137a5.36 5.36 0 0 0-.382.24c-.092.063-.183.12-.269.188 0 0-.005 0-.005.006l-4.073-1.508c1.777-1.685 4.135-2.97 6.894-3.615l-2.376-16.021c-2.798-.017-4.957-1.434-5.203-3.524-.286-2.433 2.142-4.998 5.506-5.82 3.484-.851 6.814.434 7.345 2.97.457 2.187-1.325 4.517-4.112 5.671l2.81 16.255c7.567-.074 15.05 4.587 16.837 11.532Z" fill="#fff"/>
</svg>
