<svg viewBox="0 0 100 100" fill="none" xmlns="http://www.w3.org/2000/svg">
  <g clip-path="url(#a)">
    <path d="M50 5.556a44.444 44.444 0 1 0 0 88.888 44.444 44.444 0 0 0 0-88.888ZM24.695 38.583a5.556 5.556 0 1 1 11.111 0 5.556 5.556 0 0 1-11.111 0ZM50.36 78.361a24.083 24.083 0 0 1-22.944-16.667h45.86a24.083 24.083 0 0 1-22.916 16.667Zm19.25-34.222a5.556 5.556 0 1 1 2.107-.415 5.558 5.558 0 0 1-2.135.415h.028Z" fill="#F2F2F2"/>
  </g>
  <defs>
    <clipPath id="a">
      <path fill="#fff" d="M0 0h100v100H0z"/>
    </clipPath>
  </defs>
</svg>
