<svg viewBox="0 0 88 82" fill="none" xmlns="http://www.w3.org/2000/svg">
  <path d="M74.38 8.726c.466 1.813.383 3.71-.233 5.598-.615 1.905-1.763 3.785-3.418 5.523-1.963 2.071-4.459 3.776-7.287 5.016l-.856-4.542c4.308-2.537 6.804-6.546 5.947-10.306-1.148-5.065-7.869-7.52-14.756-5.78-6.58 1.663-11.33 6.67-10.847 11.453.358 3.535 3.46 6.147 7.81 6.904l.583 4.4c-2.77-.208-5.307-.923-7.436-2.096a13.647 13.647 0 0 1-1.48-.94l-21.12 14.365c.907 2.945-.54 6.596-3.752 8.75-3.81 2.554-8.442 1.88-10.297-1.33-1.78-3.078-.383-7.411 3.094-9.832 2.928-2.038 6.53-2.18 8.884-.482l20.587-14.14a9.28 9.28 0 0 1-1.597-4.543c-.524-6.596 6.013-13.5 15.03-15.887 9.607-2.545 19.306.724 21.144 7.869Z" fill="#4496D2"/>
  <path d="M74.788 65.779c-2.529 5.373-9.965 7.361-16.204 4.517-4.924-2.246-7.486-6.805-6.762-10.988L25.953 48.553a18.562 18.562 0 0 1-1.34 1.588c-2.944 3.111-6.978 5.24-11.295 5.623-4.042.358-7.627-.857-10.115-3.335-2.37-2.363-3.46-5.623-3.152-9.158.308-3.436 1.905-6.804 4.525-9.566 2.612-2.762 5.997-4.666 9.624-5.382 3.535-.698 6.846-.158 9.466 1.34l-4.018 2.778c-3.12-1.281-7.162-.757-10.522 1.597-4.666 3.269-6.596 9.108-4.259 13.308 2.479 4.467 8.834 5.49 14.124 1.972 3.818-2.537 5.814-6.63 5.49-10.314l4.267-2.879c.258.899.407 1.864.44 2.879.067 1.913-.299 3.826-1.03 5.647l26.001 10.09c3.011-3.144 8.376-4.359 13.375-2.595 6.322 2.22 9.75 8.351 7.254 13.633Z" fill="#4496D2"/>
  <path d="M87.448 59.59c.723 2.828.732 5.648.05 8.318-.7 2.704-2.105 5.232-4.176 7.42-4.142 4.375-10.281 6.737-17.06 6.654-6.496-.075-12.61-2.395-17.227-6.338-4.358-3.727-6.887-8.493-7.27-13.434-.1-1.239-.058-2.445.109-3.61l5.88 2.554c.125 3.726 2.038 7.478 5.449 10.264a18.003 18.003 0 0 0 3.693 2.33c8.6 4.108 19.023 1.447 22.508-6.106 3.402-7.378-1.53-15.78-10.29-18.707a19.413 19.413 0 0 0-8.092-.915c-.183.017-.366.042-.55.067-.033 0-.058.008-.083.008-.141.017-.282.041-.424.066l-.457.075c-.133.025-.275.05-.408.084-.017 0-.025 0-.033.008a4.68 4.68 0 0 0-.366.083c-.067.017-.142.033-.208.05-.117.025-.225.058-.341.091-.466.125-.915.267-1.356.425-.075.025-.141.05-.216.083a5.78 5.78 0 0 0-.341.133c-.142.058-.291.116-.424.183-.059.025-.109.041-.158.066a2.95 2.95 0 0 0-.283.133c-.059.025-.117.05-.175.084l-.3.15c-.05.024-.09.05-.14.074-.142.075-.275.15-.417.225l-.35.2a7.81 7.81 0 0 0-.556.349c-.133.091-.267.175-.391.274 0 0-.009 0-.009.009l-5.93-2.196c2.587-2.454 6.022-4.326 10.04-5.266l-3.46-23.331c-4.077-.025-7.22-2.088-7.578-5.133-.416-3.543 3.119-7.278 8.018-8.476 5.074-1.239 9.923.633 10.697 4.326.665 3.185-1.93 6.58-5.99 8.26l4.093 23.672c11.022-.108 21.918 6.68 24.522 16.794Z" fill="#4496D2"/>
</svg>
