<svg viewBox="0 0 75 92" fill="none" xmlns="http://www.w3.org/2000/svg">
  <path fill-rule="evenodd" clip-rule="evenodd" d="M37.5 29.333A8.333 8.333 0 1 0 37.5 46a8.333 8.333 0 0 0 0-16.667Zm-16.667 8.334C20.833 28.462 28.295 21 37.5 21c9.205 0 16.667 7.462 16.667 16.667 0 9.204-7.462 16.666-16.667 16.666-9.205 0-16.667-7.462-16.667-16.666Z" fill="#fff"/>
  <path fill-rule="evenodd" clip-rule="evenodd" d="M10.983 11.15A37.5 37.5 0 0 1 75 37.667c0 4.236-.45 7.967-1.621 11.501-1.178 3.553-3.016 6.7-5.544 9.854a4.153 4.153 0 0 1-.103.123l-27.083 31.25a4.167 4.167 0 0 1-6.298 0L7.268 59.145a4.2 4.2 0 0 1-.103-.123c-2.528-3.154-4.366-6.3-5.544-9.854C.449 45.634 0 41.903 0 37.667A37.5 37.5 0 0 1 10.983 11.15ZM37.5 8.5A29.167 29.167 0 0 0 8.333 37.667c0 3.647.388 6.437 1.198 8.88.797 2.404 2.07 4.674 4.088 7.203L37.5 81.305 61.38 53.75c2.02-2.53 3.292-4.799 4.089-7.204.81-2.442 1.198-5.232 1.198-8.88A29.166 29.166 0 0 0 37.5 8.5Z" fill="#fff"/>
</svg>
