<svg viewBox="0 0 108 100" fill="none" xmlns="http://www.w3.org/2000/svg">
  <g clip-path="url(#a)">
    <path d="M33.092 50c-6.027.186-10.957 2.567-14.788 7.143h-7.478c-3.05 0-5.618-.754-7.701-2.26C1.042 53.376 0 51.172 0 48.27c0-13.132 2.307-19.699 6.92-19.699.223 0 1.032.391 2.427 1.172 1.395.782 3.209 1.572 5.44 2.372 2.233.8 4.447 1.2 6.642 1.2 2.492 0 4.966-.428 7.421-1.284-.186 1.377-.279 2.604-.279 3.683 0 5.171 1.507 9.933 4.52 14.286Zm59.765 35.547c0 4.464-1.358 7.99-4.073 10.575C86.068 98.707 82.459 100 77.958 100H29.185c-4.501 0-8.11-1.293-10.826-3.878-2.715-2.586-4.073-6.11-4.073-10.575 0-1.972.065-3.897.195-5.776s.39-3.906.781-6.082c.39-2.177.884-4.195 1.48-6.055a28.687 28.687 0 0 1 2.399-5.44c1.004-1.768 2.157-3.275 3.46-4.521 1.302-1.246 2.892-2.242 4.77-2.986 1.88-.743 3.953-1.116 6.223-1.116.372 0 1.172.4 2.4 1.2 1.227.8 2.585 1.693 4.073 2.679 1.488.986 3.478 1.878 5.97 2.678 2.494.8 5.005 1.2 7.534 1.2 2.53 0 5.041-.4 7.534-1.2 2.492-.8 4.483-1.692 5.97-2.678a640.13 640.13 0 0 1 4.075-2.679c1.227-.8 2.027-1.2 2.4-1.2 2.269 0 4.343.373 6.221 1.117 1.879.743 3.47 1.739 4.771 2.985 1.302 1.246 2.456 2.753 3.46 4.52a28.688 28.688 0 0 1 2.4 5.44 47.302 47.302 0 0 1 1.479 6.056c.39 2.176.65 4.204.78 6.082.131 1.879.196 3.804.196 5.776ZM35.714 14.286c0 3.943-1.395 7.31-4.185 10.1-2.79 2.79-6.157 4.185-10.1 4.185-3.944 0-7.31-1.395-10.1-4.185-2.791-2.79-4.186-6.157-4.186-10.1 0-3.944 1.395-7.31 4.185-10.1C14.118 1.395 17.485 0 21.428 0c3.944 0 7.31 1.395 10.101 4.185 2.79 2.79 4.185 6.157 4.185 10.1ZM75 35.714c0 5.916-2.093 10.966-6.278 15.151-4.185 4.185-9.235 6.278-15.15 6.278-5.916 0-10.966-2.093-15.151-6.278-4.185-4.185-6.278-9.236-6.278-15.15 0-5.916 2.093-10.966 6.278-15.151 4.185-4.186 9.235-6.278 15.15-6.278 5.916 0 10.966 2.092 15.151 6.278C72.907 24.749 75 29.799 75 35.714Zm32.143 12.556c0 2.902-1.042 5.106-3.125 6.613-2.083 1.506-4.65 2.26-7.701 2.26h-7.478c-3.832-4.576-8.76-6.957-14.788-7.143 3.014-4.353 4.52-9.115 4.52-14.286 0-1.079-.093-2.306-.279-3.683 2.456.856 4.93 1.284 7.422 1.284 2.195 0 4.409-.4 6.64-1.2 2.233-.8 4.047-1.59 5.442-2.372 1.395-.78 2.204-1.172 2.427-1.172 4.613 0 6.92 6.567 6.92 19.7ZM100 14.286c0 3.943-1.395 7.31-4.185 10.1-2.79 2.79-6.157 4.185-10.1 4.185-3.944 0-7.311-1.395-10.101-4.185-2.79-2.79-4.185-6.157-4.185-10.1 0-3.944 1.395-7.31 4.185-10.1C78.404 1.395 81.77 0 85.714 0c3.944 0 7.31 1.395 10.1 4.185 2.79 2.79 4.186 6.157 4.186 10.1Z" fill="#F2F2F2"/>
  </g>
  <defs>
    <clipPath id="a">
      <path fill="#fff" d="M0 0h107.143v100H0z"/>
    </clipPath>
  </defs>
</svg>
